<svg xmlns="http://www.w3.org/2000/svg" xmlns:xlink="http://www.w3.org/1999/xlink" width="400" zoomAndPan="magnify" viewBox="0 0 300 60" height="80" preserveAspectRatio="xMidYMid meet" version="1.0"><defs><g/></defs><g fill="#000000" fill-opacity="1"><g transform="translate(2.109375, 41.625)"><g><path d="M 22.175781 -5.761719 C 22.175781 -4.511719 21.503906 -4.078125 19.488281 -4.078125 L 3.023438 -4.078125 L 3.023438 0 L 17.664062 0 C 23.664062 0 27.3125 -3.023438 27.3125 -8.640625 L 27.3125 -9.9375 C 27.3125 -13.777344 25.921875 -16.65625 21.695312 -17.230469 L 7.535156 -19.199219 L 7.535156 -25.96875 C 7.535156 -27.214844 8.207031 -27.648438 10.222656 -27.648438 L 25.726562 -27.648438 L 25.726562 -31.726562 L 12.046875 -31.726562 C 6.046875 -31.726562 2.398438 -28.703125 2.398438 -23.089844 L 2.398438 -21.792969 C 2.398438 -18.433594 4.273438 -15.167969 8.015625 -14.6875 L 22.175781 -12.816406 Z M 22.175781 -5.761719 "/></g></g></g><g fill="#000000" fill-opacity="1"><g transform="translate(31.821326, 41.625)"><g><path d="M 3.839844 0 L 8.976562 0 L 8.976562 -29.089844 L 18.144531 0 L 24.863281 0 L 34.03125 -29.089844 L 34.03125 0 L 39.167969 0 L 39.167969 -31.726562 L 30 -31.726562 L 30 -31.679688 L 21.503906 -3.457031 L 13.007812 -31.679688 L 13.007812 -31.726562 L 3.839844 -31.726562 Z M 3.839844 0 "/></g></g></g><g fill="#f7be1d" fill-opacity="1"><g transform="translate(74.824216, 41.625)"><g><path d="M 0.480469 0 L 5.617188 0 L 8.113281 -7.105469 L 22.367188 -7.105469 L 24.863281 0 L 30.046875 0 L 18.527344 -31.726562 L 11.953125 -31.726562 Z M 15.265625 -27.359375 L 20.976562 -11.183594 L 9.550781 -11.183594 Z M 15.265625 -27.359375 "/></g></g></g><g fill="#35b9e5" fill-opacity="1"><g transform="translate(105.351558, 41.625)"><g><path d="M 23.328125 -11.953125 C 25.246094 -12.335938 27.503906 -14.113281 27.503906 -17.710938 L 27.503906 -23.855469 C 27.503906 -30.238281 24.769531 -31.726562 17.566406 -31.726562 L 3.839844 -31.726562 L 3.839844 0 L 8.976562 0 L 8.976562 -11.519531 L 18.527344 -11.519531 L 23.902344 0 L 29.472656 0 Z M 8.976562 -27.648438 L 19.824219 -27.648438 C 21.3125 -27.648438 22.367188 -27.121094 22.367188 -25.585938 L 22.367188 -17.664062 C 22.367188 -16.128906 21.3125 -15.601562 19.824219 -15.601562 L 8.976562 -15.601562 Z M 8.976562 -27.648438 "/></g></g></g><g fill="#9dc244" fill-opacity="1"><g transform="translate(136.734369, 41.625)"><g><path d="M 1.921875 -27.839844 L 12.335938 -27.839844 L 12.335938 0 L 17.472656 0 L 17.472656 -27.839844 L 27.886719 -27.839844 L 27.886719 -31.726562 L 1.921875 -31.726562 Z M 1.921875 -27.839844 "/></g></g></g><g fill="#9dc244" fill-opacity="1"><g transform="translate(166.542313, 41.625)"><g/></g></g><g fill="#000000" fill-opacity="1"><g transform="translate(182.039055, 41.625)"><g><path d="M 25.199219 -10.945312 L 25.199219 -18.574219 C 25.199219 -23.039062 21.792969 -25.488281 16.992188 -25.488281 L 11.089844 -25.488281 C 6.289062 -25.488281 2.878906 -23.039062 2.878906 -18.574219 L 2.878906 -6.910156 C 2.878906 -2.449219 6.289062 0 11.089844 0 L 25.199219 0 L 25.199219 -3.695312 L 9.40625 -3.695312 C 8.160156 -3.695312 7.726562 -4.511719 7.726562 -5.808594 L 7.726562 -10.945312 Z M 20.351562 -14.640625 L 7.726562 -14.640625 L 7.726562 -19.679688 C 7.726562 -20.6875 8.160156 -21.792969 9.40625 -21.792969 L 18.671875 -21.792969 C 19.921875 -21.792969 20.351562 -20.6875 20.351562 -19.679688 Z M 20.351562 -14.640625 "/></g></g></g><g fill="#9dc244" fill-opacity="1"><g transform="translate(210.117179, 41.625)"><g><path d="M 8.496094 -7.105469 L 8.496094 -24.625 C 8.496094 -26.785156 9.121094 -27.648438 11.039062 -27.648438 L 28.511719 -27.648438 L 28.511719 -31.726562 L 12.433594 -31.726562 C 6.816406 -31.726562 3.359375 -28.847656 3.359375 -23.566406 L 3.359375 -8.160156 C 3.359375 -2.878906 6.816406 0 12.433594 0 L 28.511719 0 L 28.511719 -16.847656 L 23.375 -16.847656 L 23.375 -4.078125 L 11.039062 -4.078125 C 9.121094 -4.078125 8.496094 -4.945312 8.496094 -7.105469 Z M 8.496094 -7.105469 "/></g></g></g><g fill="#f7be1d" fill-opacity="1"><g transform="translate(241.49999, 41.625)"><g><path d="M 25.199219 -10.945312 L 25.199219 -18.574219 C 25.199219 -23.039062 21.792969 -25.488281 16.992188 -25.488281 L 11.089844 -25.488281 C 6.289062 -25.488281 2.878906 -23.039062 2.878906 -18.574219 L 2.878906 -6.910156 C 2.878906 -2.449219 6.289062 0 11.089844 0 L 25.199219 0 L 25.199219 -3.695312 L 9.40625 -3.695312 C 8.160156 -3.695312 7.726562 -4.511719 7.726562 -5.808594 L 7.726562 -10.945312 Z M 20.351562 -14.640625 L 7.726562 -14.640625 L 7.726562 -19.679688 C 7.726562 -20.6875 8.160156 -21.792969 9.40625 -21.792969 L 18.671875 -21.792969 C 19.921875 -21.792969 20.351562 -20.6875 20.351562 -19.679688 Z M 20.351562 -14.640625 "/></g></g></g><g fill="#35b9e5" fill-opacity="1"><g transform="translate(269.578114, 41.625)"><g><path d="M 3.839844 0 L 8.6875 0 L 8.6875 -19.199219 C 8.6875 -20.976562 9.167969 -21.695312 10.609375 -21.792969 L 18.671875 -21.792969 C 20.113281 -21.695312 20.59375 -20.976562 20.59375 -19.199219 L 20.59375 0 L 25.441406 0 L 25.441406 -18.574219 C 25.441406 -23.039062 22.511719 -25.488281 17.710938 -25.488281 L 16.222656 -25.488281 C 12.480469 -25.488281 9.792969 -25.390625 8.640625 -22.558594 L 8.640625 -25.488281 L 3.839844 -25.488281 Z M 3.839844 0 "/></g></g></g></svg>