<svg version="1.1" id="Layer_1" xmlns="http://www.w3.org/2000/svg" xmlns:xlink="http://www.w3.org/1999/xlink" x="0px" y="0px"
	 width="100%" viewBox="0 0 400 400" enable-background="new 0 0 400 400" xml:space="preserve">
<path fill="#FEFEFD" opacity="1.000000" stroke="none" 
	d="
M229.000000,401.000000 
	C152.690353,401.000000 76.880722,401.000000 1.035541,401.000000 
	C1.035541,267.732025 1.035541,134.464050 1.035541,1.098030 
	C134.226257,1.098030 267.452606,1.098030 400.839478,1.098030 
	C400.839478,134.333176 400.839478,267.666565 400.839478,401.000000 
	C343.797455,401.000000 286.648712,401.000000 229.000000,401.000000 
M335.933777,387.343811 
	C338.266388,387.288879 340.598999,387.233917 343.628082,387.125427 
	C343.807281,386.728119 343.986481,386.330841 344.320496,385.014557 
	C344.320496,366.131012 344.320496,347.247467 344.320496,327.868774 
	C352.277893,327.868774 359.348938,327.868774 366.375061,327.868774 
	C366.375061,324.969299 366.375061,322.583679 366.375061,320.225159 
	C347.892242,320.225159 329.818176,320.225159 311.555359,320.225159 
	C311.555359,322.914398 311.555359,325.303772 311.555359,328.177887 
	C318.953644,328.177887 326.028870,328.177887 333.833771,328.177887 
	C333.833771,347.753143 333.833771,366.845367 333.880737,386.634491 
	C334.278076,386.815826 334.675415,386.997192 335.933777,387.343811 
M18.624996,277.617340 
	C25.712934,277.696106 32.801926,277.884644 39.888454,277.816589 
	C44.941563,277.768097 49.991364,277.374664 55.798737,276.907318 
	C56.608543,275.200592 58.084442,273.507355 58.119335,271.784943 
	C58.335049,261.136871 58.217079,250.482178 58.230457,239.829727 
	C58.235401,235.894775 56.261333,234.043182 52.377010,234.047729 
	C41.890995,234.060028 31.404858,234.075348 20.918964,234.036667 
	C16.806303,234.021500 14.782686,235.876190 14.806349,240.081390 
	C14.865354,250.567108 14.673326,261.057678 14.968663,271.535400 
	C15.021777,273.419739 16.921688,275.251953 18.624996,277.617340 
M101.265297,238.650116 
	C101.227478,253.031860 101.151352,267.413666 101.179832,281.795288 
	C101.186623,285.223541 101.542809,288.651093 101.800262,292.820007 
	C103.084473,297.283600 106.196350,299.314636 110.691238,299.322815 
	C127.494026,299.353394 144.297440,299.416901 161.099472,299.302094 
	C167.300354,299.259766 170.706802,295.895721 170.759705,289.648773 
	C170.900543,273.013397 170.897400,256.375305 170.764252,239.739807 
	C170.712784,233.308578 167.162933,230.001968 160.686996,229.978760 
	C144.216980,229.919724 127.746506,229.924683 111.276451,229.977829 
	C105.487984,229.996506 103.066772,232.086655 101.265297,238.650116 
M293.618683,116.973007 
	C293.635162,94.321068 293.718262,71.668900 293.639404,49.017292 
	C293.601227,38.060379 287.941742,32.579479 276.865295,32.398186 
	C273.201935,32.338226 269.536743,32.387096 265.872406,32.387115 
	C244.885727,32.387222 223.898697,32.316849 202.912491,32.416073 
	C191.449066,32.470272 185.861511,38.072781 185.853409,49.187859 
	C185.835052,74.338562 185.817871,99.489334 185.863602,124.639961 
	C185.881363,134.403061 191.583694,140.237396 201.313171,140.308273 
	C216.469421,140.418716 231.627274,140.376831 246.783768,140.286850 
	C248.328583,140.277695 250.341644,139.981705 251.338867,139.004196 
	C262.717712,127.850471 276.781006,122.279488 292.693817,118.958740 
	C292.912964,118.593376 293.132141,118.228012 293.618683,116.973007 
M251.394791,200.499817 
	C251.394592,218.988174 251.341385,237.476715 251.408478,255.964828 
	C251.481262,276.022156 261.702362,291.003082 280.779572,297.129822 
	C288.722870,299.680878 297.382690,300.947235 305.743896,301.079651 
	C335.051758,301.543823 364.371399,301.264374 393.686584,301.247467 
	C395.099274,301.246674 396.511841,301.057251 397.760864,300.967438 
	C397.760864,292.713287 397.760864,284.959808 397.760864,276.881897 
	C387.518951,276.881897 377.554169,276.881989 367.589386,276.881897 
	C343.604248,276.881744 319.619080,276.897552 295.633972,276.871307 
	C288.543976,276.863556 284.351990,274.443420 284.096069,268.501923 
	C283.540833,255.612106 283.924866,242.681824 283.924866,229.310318 
	C321.884583,229.310318 359.770416,229.310318 397.761719,229.310318 
	C397.761719,210.239059 398.546356,191.582764 397.522705,173.026230 
	C396.645111,157.117645 387.632538,145.291290 372.826355,139.530624 
	C364.330414,136.225098 354.855377,134.595581 345.705597,134.006958 
	C331.771912,133.110611 317.727264,133.446243 303.751282,133.909225 
	C296.835724,134.138336 289.753143,135.073212 283.119171,136.983963 
	C262.601685,142.893494 251.465256,158.217712 251.397705,179.512222 
	C251.376572,186.174683 251.394669,192.837280 251.394791,200.499817 
M59.083347,136.500168 
	C59.083622,152.660324 59.043922,168.820602 59.101131,184.980560 
	C59.129498,192.993256 63.781101,198.228210 71.510178,198.284836 
	C94.166039,198.450821 116.824692,198.444839 139.480576,198.279053 
	C146.710709,198.226135 151.719299,193.087418 151.762009,185.837585 
	C151.894470,163.347427 151.909378,140.855286 151.752823,118.365433 
	C151.700134,110.795853 146.560486,105.844704 139.080170,105.816032 
	C116.589561,105.729805 94.098129,105.723808 71.607605,105.820625 
	C64.133858,105.852791 59.243813,110.944160 59.106400,118.507507 
	C59.003521,124.170044 59.084366,129.835922 59.083347,136.500168 
M132.108170,371.492828 
	C131.362366,373.922333 130.616577,376.351837 129.530411,379.890167 
	C123.275200,359.162567 117.383858,339.640747 111.496819,320.133179 
	C104.872513,320.133179 98.612282,320.133179 92.144653,320.133179 
	C92.144653,342.581940 92.144653,364.816742 92.144653,387.272491 
	C95.733673,387.272491 99.152184,387.272491 103.088272,387.272491 
	C103.088272,367.607819 103.088272,348.196411 103.088272,328.785004 
	C108.984428,345.006317 114.099503,361.299591 119.219269,377.591400 
	C122.380539,387.651031 122.386307,387.476166 132.770325,387.629791 
	C136.177856,387.680176 137.214966,386.324493 138.109695,383.375732 
	C142.645523,368.426910 147.409714,353.547211 152.114349,338.649780 
	C153.180038,335.275269 154.327255,331.926453 155.436935,328.565826 
	C155.711594,328.624542 155.986237,328.683258 156.260895,328.741974 
	C156.260895,348.171692 156.260895,367.601410 156.260895,387.268127 
	C160.010910,387.268127 163.425232,387.268127 166.922562,387.268127 
	C166.922562,364.764282 166.922562,342.524567 166.922562,319.919708 
	C161.564270,319.919708 156.428558,320.104004 151.314880,319.847992 
	C148.421646,319.703156 147.346268,320.714355 146.546921,323.453918 
	C141.938049,339.249329 137.094955,354.976379 132.108170,371.492828 
M294.172882,323.213257 
	C291.704437,322.266357 289.252930,320.556274 286.764740,320.501099 
	C274.168945,320.221802 261.563629,320.372589 248.737381,320.372589 
	C248.616898,321.525726 248.396820,322.657043 248.395599,323.788666 
	C248.374283,343.598175 248.555649,363.410278 248.262466,383.215485 
	C248.183777,388.530762 251.284988,387.524292 254.355896,387.699341 
	C257.759552,387.893402 260.048279,387.590759 259.769867,383.048584 
	C259.368378,376.498566 259.667206,369.905670 259.667206,362.987000 
	C265.774384,362.987000 271.095245,362.743134 276.369995,363.129181 
	C278.046814,363.251862 280.306458,364.676361 281.087799,366.148346 
	C284.281128,372.164368 286.916748,378.473846 289.975555,384.565918 
	C290.613007,385.835480 292.077209,387.339020 293.334442,387.518951 
	C296.347229,387.950165 299.463501,387.658325 303.233154,387.658325 
	C298.693817,378.734772 294.593933,370.675079 291.425537,364.446503 
	C294.455444,359.379150 297.928925,355.911987 298.558533,351.988464 
	C299.599121,345.503632 299.198914,338.688873 298.602539,332.085693 
	C298.341309,329.193604 296.100403,326.480286 294.172882,323.213257 
M101.649162,37.505573 
	C101.651482,44.318699 101.669380,51.131866 101.650246,57.944935 
	C101.638863,61.996346 103.459328,64.124916 107.667915,64.107788 
	C118.469009,64.063828 129.270401,64.085724 140.071671,64.095222 
	C143.916199,64.098602 145.992126,62.282784 145.997238,58.364941 
	C146.011551,47.397522 146.013306,36.430054 145.994385,25.462648 
	C145.988144,21.842775 144.153290,19.842661 140.502274,19.828356 
	C129.369049,19.784733 118.235443,19.783575 107.102234,19.827940 
	C103.399696,19.842693 101.714569,21.981245 101.676659,25.541546 
	C101.637733,29.196934 101.655746,32.852928 101.649162,37.505573 
M199.108704,324.527832 
	C191.628616,345.269714 184.148529,366.011597 176.648361,386.809174 
	C186.302353,389.038940 187.031006,388.673615 189.846878,380.547455 
	C190.391205,378.976624 191.047165,377.430420 191.427628,375.819977 
	C192.063629,373.127747 193.492661,372.098877 196.374207,372.215942 
	C202.189301,372.452209 208.020752,372.285248 213.845459,372.285126 
	C222.966629,372.284912 222.966614,372.285095 226.025162,381.058197 
	C228.553543,388.310577 231.267532,389.483215 239.067886,386.564056 
	C231.988129,367.041534 224.905334,347.517822 217.828247,327.992035 
	C214.901642,319.917450 214.906357,319.990753 206.113083,319.888550 
	C202.970184,319.852081 200.009720,319.664948 199.108704,324.527832 
M72.032448,383.631927 
	C78.855766,378.283936 79.142258,370.871521 78.312126,363.215637 
	C77.484505,355.582855 74.003960,351.987732 66.348724,350.814606 
	C56.518406,349.308136 46.661438,347.975586 36.422619,346.511841 
	C36.422619,343.101013 36.422009,339.971008 36.422737,336.841003 
	C36.424622,328.766541 36.470905,328.703186 44.375740,328.690216 
	C54.490517,328.673584 64.605339,328.686188 74.825516,328.686188 
	C74.825516,325.500763 74.825516,322.802582 74.825516,319.964111 
	C64.351746,319.964111 54.209232,319.749329 44.079708,320.020294 
	C32.303749,320.335358 25.861084,326.886383 25.454197,338.353180 
	C25.030088,350.305298 29.751730,355.404510 42.450577,356.942749 
	C50.806431,357.954926 59.140778,359.144653 67.270119,360.226288 
	C67.482285,361.126129 67.622307,361.447998 67.624313,361.770691 
	C67.643936,364.933167 67.645660,368.095795 67.642685,371.258362 
	C67.635933,378.424500 67.265854,378.811798 60.012314,378.825073 
	C49.073826,378.845093 38.135273,378.830292 27.037174,378.830292 
	C27.037174,381.885651 27.037174,384.476929 27.037174,387.213409 
	C38.842556,387.213409 50.462612,387.433868 62.064175,387.068024 
	C65.208969,386.968872 68.297874,385.097626 72.032448,383.631927 
M239.073120,214.498413 
	C239.073120,203.393356 239.073120,192.288284 239.073120,180.704575 
	C229.566147,180.704575 220.621384,180.579071 211.683197,180.766876 
	C208.151245,180.841095 206.227203,183.293335 206.199020,186.710449 
	C206.093292,199.526855 205.962372,212.350525 206.354065,225.155792 
	C206.415512,227.164963 209.041336,230.701447 210.639206,230.793518 
	C220.000839,231.332886 229.409393,231.058319 239.073181,231.058319 
	C239.073181,225.449799 239.073181,220.473434 239.073120,214.498413 
M5.946805,83.456604 
	C5.949636,86.112343 5.429477,88.918304 6.134361,91.372398 
	C6.625665,93.082893 8.732032,95.475388 10.228319,95.558510 
	C17.839861,95.981361 25.487940,95.782738 33.122753,95.731392 
	C35.898853,95.712723 37.400253,94.303520 37.389442,91.395386 
	C37.361065,83.760277 37.366444,76.124954 37.388325,68.489799 
	C37.397198,65.394669 35.972507,63.979816 32.818752,64.013969 
	C25.350323,64.094879 17.879845,64.095695 10.411413,64.015549 
	C7.229687,63.981407 5.887572,65.411766 5.933491,68.526955 
	C6.001983,73.173485 5.948407,77.821815 5.946805,83.456604 
M240.989334,275.370087 
	C240.580215,273.780579 240.171082,272.191071 239.670334,270.245605 
	C236.860519,270.245605 234.066223,269.715790 231.633926,270.425873 
	C229.919968,270.926270 227.542084,273.041931 227.452011,274.554932 
	C227.017487,281.853882 227.133423,289.197174 227.377594,296.513977 
	C227.420197,297.790771 228.975922,300.069397 229.893188,300.100403 
	C238.198898,300.381256 246.518051,300.264893 255.267792,300.264893 
	C252.042847,296.069489 248.922455,292.757446 246.707520,288.922455 
	C244.402725,284.931885 242.972336,280.436249 240.989334,275.370087 
M44.499748,5.752199 
	C32.695122,5.752501 32.695122,5.752501 32.695122,17.538286 
	C32.695122,17.871326 32.695122,18.204369 32.695122,18.537409 
	C32.695095,29.333723 32.695095,29.333721 43.472012,29.333719 
	C56.249405,29.333717 56.249409,29.333719 56.249424,16.553211 
	C56.249435,5.752918 56.249432,5.752918 44.499748,5.752199 
z"/>
<path fill="#060808" opacity="1.000000" stroke="none" 
	d="
M251.394806,199.999817 
	C251.394669,192.837280 251.376572,186.174683 251.397705,179.512222 
	C251.465256,158.217712 262.601685,142.893494 283.119171,136.983963 
	C289.753143,135.073212 296.835724,134.138336 303.751282,133.909225 
	C317.727264,133.446243 331.771912,133.110611 345.705597,134.006958 
	C354.855377,134.595581 364.330414,136.225098 372.826355,139.530624 
	C387.632538,145.291290 396.645111,157.117645 397.522705,173.026230 
	C398.546356,191.582764 397.761719,210.239059 397.761719,229.310318 
	C359.770416,229.310318 321.884583,229.310318 283.924866,229.310318 
	C283.924866,242.681824 283.540833,255.612106 284.096069,268.501923 
	C284.351990,274.443420 288.543976,276.863556 295.633972,276.871307 
	C319.619080,276.897552 343.604248,276.881744 367.589386,276.881897 
	C377.554169,276.881989 387.518951,276.881897 397.760864,276.881897 
	C397.760864,284.959808 397.760864,292.713287 397.760864,300.967438 
	C396.511841,301.057251 395.099274,301.246674 393.686584,301.247467 
	C364.371399,301.264374 335.051758,301.543823 305.743896,301.079651 
	C297.382690,300.947235 288.722870,299.680878 280.779572,297.129822 
	C261.702362,291.003082 251.481262,276.022156 251.408478,255.964828 
	C251.341385,237.476715 251.394592,218.988174 251.394806,199.999817 
M358.433685,204.969513 
	C360.870544,204.969513 363.307373,204.969513 365.985626,204.969513 
	C365.985626,192.805115 366.268066,181.181427 365.887146,169.579529 
	C365.629669,161.738434 361.183289,158.065536 353.212738,158.052322 
	C334.579773,158.021439 315.946716,158.033661 297.313690,158.045441 
	C287.800446,158.051453 283.654755,161.950607 283.428253,171.550400 
	C283.228210,180.030380 283.384705,188.518784 283.383911,197.003464 
	C283.383636,199.591217 283.383881,202.178970 283.383881,204.969513 
	C308.556335,204.969513 333.003967,204.969513 358.433685,204.969513 
z"/>
<path fill="#F7BD16" opacity="1.000000" stroke="none" 
	d="
M291.999359,119.002319 
	C276.781006,122.279488 262.717712,127.850471 251.338867,139.004196 
	C250.341644,139.981705 248.328583,140.277695 246.783768,140.286850 
	C231.627274,140.376831 216.469421,140.418716 201.313171,140.308273 
	C191.583694,140.237396 185.881363,134.403061 185.863602,124.639961 
	C185.817871,99.489334 185.835052,74.338562 185.853409,49.187859 
	C185.861511,38.072781 191.449066,32.470272 202.912491,32.416073 
	C223.898697,32.316849 244.885727,32.387222 265.872406,32.387115 
	C269.536743,32.387096 273.201935,32.338226 276.865295,32.398186 
	C287.941742,32.579479 293.601227,38.060379 293.639404,49.017292 
	C293.718262,71.668900 293.635162,94.321068 293.205322,117.543068 
	C292.527802,118.409531 292.263580,118.705925 291.999359,119.002319 
z"/>
<path fill="#9AC03E" opacity="1.000000" stroke="none" 
	d="
M59.083378,136.000244 
	C59.084366,129.835922 59.003521,124.170044 59.106400,118.507507 
	C59.243813,110.944160 64.133858,105.852791 71.607605,105.820625 
	C94.098129,105.723808 116.589561,105.729805 139.080170,105.816032 
	C146.560486,105.844704 151.700134,110.795853 151.752823,118.365433 
	C151.909378,140.855286 151.894470,163.347427 151.762009,185.837585 
	C151.719299,193.087418 146.710709,198.226135 139.480576,198.279053 
	C116.824692,198.444839 94.166039,198.450821 71.510178,198.284836 
	C63.781101,198.228210 59.129498,192.993256 59.101131,184.980560 
	C59.043922,168.820602 59.083622,152.660324 59.083378,136.000244 
z"/>
<path fill="#F7BD15" opacity="1.000000" stroke="none" 
	d="
M101.618988,237.903717 
	C103.066772,232.086655 105.487984,229.996506 111.276451,229.977829 
	C127.746506,229.924683 144.216980,229.919724 160.686996,229.978760 
	C167.162933,230.001968 170.712784,233.308578 170.764252,239.739807 
	C170.897400,256.375305 170.900543,273.013397 170.759705,289.648773 
	C170.706802,295.895721 167.300354,299.259766 161.099472,299.302094 
	C144.297440,299.416901 127.494026,299.353394 110.691238,299.322815 
	C106.196350,299.314636 103.084473,297.283600 102.097275,292.171326 
	C102.572174,290.896118 102.904152,290.269989 102.905457,289.643097 
	C102.939056,273.560272 102.965569,257.477234 102.886131,241.394745 
	C102.880371,240.229004 102.060402,239.067307 101.618988,237.903717 
z"/>
<path fill="#080808" opacity="1.000000" stroke="none" 
	d="
M132.219696,371.109711 
	C137.094955,354.976379 141.938049,339.249329 146.546921,323.453918 
	C147.346268,320.714355 148.421646,319.703156 151.314880,319.847992 
	C156.428558,320.104004 161.564270,319.919708 166.922562,319.919708 
	C166.922562,342.524567 166.922562,364.764282 166.922562,387.268127 
	C163.425232,387.268127 160.010910,387.268127 156.260895,387.268127 
	C156.260895,367.601410 156.260895,348.171692 156.260895,328.741974 
	C155.986237,328.683258 155.711594,328.624542 155.436935,328.565826 
	C154.327255,331.926453 153.180038,335.275269 152.114349,338.649780 
	C147.409714,353.547211 142.645523,368.426910 138.109695,383.375732 
	C137.214966,386.324493 136.177856,387.680176 132.770325,387.629791 
	C122.386307,387.476166 122.380539,387.651031 119.219269,377.591400 
	C114.099503,361.299591 108.984428,345.006317 103.088272,328.785004 
	C103.088272,348.196411 103.088272,367.607819 103.088272,387.272491 
	C99.152184,387.272491 95.733673,387.272491 92.144653,387.272491 
	C92.144653,364.816742 92.144653,342.581940 92.144653,320.133179 
	C98.612282,320.133179 104.872513,320.133179 111.496819,320.133179 
	C117.383858,339.640747 123.275200,359.162567 129.530411,379.890167 
	C130.616577,376.351837 131.362366,373.922333 132.219696,371.109711 
z"/>
<path fill="#3ABBE5" opacity="1.000000" stroke="none" 
	d="
M294.465637,323.449524 
	C296.100403,326.480286 298.341309,329.193604 298.602539,332.085693 
	C299.198914,338.688873 299.599121,345.503632 298.558533,351.988464 
	C297.928925,355.911987 294.455444,359.379150 291.425537,364.446503 
	C294.593933,370.675079 298.693817,378.734772 303.233154,387.658325 
	C299.463501,387.658325 296.347229,387.950165 293.334442,387.518951 
	C292.077209,387.339020 290.613007,385.835480 289.975555,384.565918 
	C286.916748,378.473846 284.281128,372.164368 281.087799,366.148346 
	C280.306458,364.676361 278.046814,363.251862 276.369995,363.129181 
	C271.095245,362.743134 265.774384,362.987000 259.667206,362.987000 
	C259.667206,369.905670 259.368378,376.498566 259.769867,383.048584 
	C260.048279,387.590759 257.759552,387.893402 254.355896,387.699341 
	C251.284988,387.524292 248.183777,388.530762 248.262466,383.215485 
	C248.555649,363.410278 248.374283,343.598175 248.395599,323.788666 
	C248.396820,322.657043 248.616898,321.525726 248.737381,320.372589 
	C261.563629,320.372589 274.168945,320.221802 286.764740,320.501099 
	C289.252930,320.556274 291.704437,322.266357 294.465637,323.449524 
M284.911163,329.014160 
	C276.534943,329.014160 268.158722,329.014160 259.708221,329.014160 
	C259.708221,337.633331 259.708221,345.693329 259.708221,354.096832 
	C267.819641,354.096832 275.605804,354.138367 283.391144,354.077301 
	C286.718384,354.051178 288.051514,352.099274 288.016144,348.902710 
	C287.960968,343.920685 288.178162,338.927643 287.898560,333.960724 
	C287.809174,332.372345 286.511230,330.852020 284.911163,329.014160 
z"/>
<path fill="#12B3E3" opacity="1.000000" stroke="none" 
	d="
M101.649002,37.007118 
	C101.655746,32.852928 101.637733,29.196934 101.676659,25.541546 
	C101.714569,21.981245 103.399696,19.842693 107.102234,19.827940 
	C118.235443,19.783575 129.369049,19.784733 140.502274,19.828356 
	C144.153290,19.842661 145.988144,21.842775 145.994385,25.462648 
	C146.013306,36.430054 146.011551,47.397522 145.997238,58.364941 
	C145.992126,62.282784 143.916199,64.098602 140.071671,64.095222 
	C129.270401,64.085724 118.469009,64.063828 107.667915,64.107788 
	C103.459328,64.124916 101.638863,61.996346 101.650246,57.944935 
	C101.669380,51.131866 101.651482,44.318699 101.649002,37.007118 
z"/>
<path fill="#12B3E3" opacity="1.000000" stroke="none" 
	d="
M17.968937,277.108246 
	C16.921688,275.251953 15.021777,273.419739 14.968663,271.535400 
	C14.673326,261.057678 14.865354,250.567108 14.806349,240.081390 
	C14.782686,235.876190 16.806303,234.021500 20.918964,234.036667 
	C31.404858,234.075348 41.890995,234.060028 52.377010,234.047729 
	C56.261333,234.043182 58.235401,235.894775 58.230457,239.829727 
	C58.217079,250.482178 58.335049,261.136871 58.119335,271.784943 
	C58.084442,273.507355 56.608543,275.200592 55.126518,276.718872 
	C42.848904,276.396576 31.243593,276.248993 19.637814,276.171356 
	C19.083635,276.167633 18.525324,276.781830 17.968937,277.108246 
z"/>
<path fill="#F7BF21" opacity="1.000000" stroke="none" 
	d="
M199.239349,324.148071 
	C200.009720,319.664948 202.970184,319.852081 206.113083,319.888550 
	C214.906357,319.990753 214.901642,319.917450 217.828247,327.992035 
	C224.905334,347.517822 231.988129,367.041534 239.067886,386.564056 
	C231.267532,389.483215 228.553543,388.310577 226.025162,381.058197 
	C222.966614,372.285095 222.966629,372.284912 213.845459,372.285126 
	C208.020752,372.285248 202.189301,372.452209 196.374207,372.215942 
	C193.492661,372.098877 192.063629,373.127747 191.427628,375.819977 
	C191.047165,377.430420 190.391205,378.976624 189.846878,380.547455 
	C187.031006,388.673615 186.302353,389.038940 176.648361,386.809174 
	C184.148529,366.011597 191.628616,345.269714 199.239349,324.148071 
M218.954178,360.470123 
	C215.427658,350.562714 211.901138,340.655304 208.374619,330.747925 
	C208.012604,330.804565 207.650604,330.861237 207.288589,330.917877 
	C203.506302,341.649292 199.724014,352.380707 195.706299,363.780121 
	C202.372025,363.780121 208.311752,363.780151 214.251465,363.780121 
	C215.416443,363.780121 216.718597,364.097504 217.700378,363.673340 
	C218.409012,363.367218 218.691544,362.074738 218.954178,360.470123 
z"/>
<path fill="#0A0A0A" opacity="1.000000" stroke="none" 
	d="
M71.722443,383.835846 
	C68.297874,385.097626 65.208969,386.968872 62.064175,387.068024 
	C50.462612,387.433868 38.842556,387.213409 27.037174,387.213409 
	C27.037174,384.476929 27.037174,381.885651 27.037174,378.830292 
	C38.135273,378.830292 49.073826,378.845093 60.012314,378.825073 
	C67.265854,378.811798 67.635933,378.424500 67.642685,371.258362 
	C67.645660,368.095795 67.643936,364.933167 67.624313,361.770691 
	C67.622307,361.447998 67.482285,361.126129 67.270119,360.226288 
	C59.140778,359.144653 50.806431,357.954926 42.450577,356.942749 
	C29.751730,355.404510 25.030088,350.305298 25.454197,338.353180 
	C25.861084,326.886383 32.303749,320.335358 44.079708,320.020294 
	C54.209232,319.749329 64.351746,319.964111 74.825516,319.964111 
	C74.825516,322.802582 74.825516,325.500763 74.825516,328.686188 
	C64.605339,328.686188 54.490517,328.673584 44.375740,328.690216 
	C36.470905,328.703186 36.424622,328.766541 36.422737,336.841003 
	C36.422009,339.971008 36.422619,343.101013 36.422619,346.511841 
	C46.661438,347.975586 56.518406,349.308136 66.348724,350.814606 
	C74.003960,351.987732 77.484505,355.582855 78.312126,363.215637 
	C79.142258,370.871521 78.855766,378.283936 71.722443,383.835846 
z"/>
<path fill="#13B3E3" opacity="1.000000" stroke="none" 
	d="
M239.073151,214.997742 
	C239.073181,220.473434 239.073181,225.449799 239.073181,231.058319 
	C229.409393,231.058319 220.000839,231.332886 210.639206,230.793518 
	C209.041336,230.701447 206.415512,227.164963 206.354065,225.155792 
	C205.962372,212.350525 206.093292,199.526855 206.199020,186.710449 
	C206.227203,183.293335 208.151245,180.841095 211.683197,180.766876 
	C220.621384,180.579071 229.566147,180.704575 239.073120,180.704575 
	C239.073120,192.288284 239.073120,203.393356 239.073151,214.997742 
z"/>
<path fill="#9EC246" opacity="1.000000" stroke="none" 
	d="
M342.931610,387.178986 
	C340.598999,387.233917 338.266388,387.288879 335.368042,386.989746 
	C334.479492,386.402954 334.156616,386.170288 333.833771,385.937592 
	C333.833771,366.845367 333.833771,347.753143 333.833771,328.177887 
	C326.028870,328.177887 318.953644,328.177887 311.555359,328.177887 
	C311.555359,325.303772 311.555359,322.914398 311.555359,320.225159 
	C329.818176,320.225159 347.892242,320.225159 366.375061,320.225159 
	C366.375061,322.583679 366.375061,324.969299 366.375061,327.868774 
	C359.348938,327.868774 352.277893,327.868774 344.320496,327.868774 
	C344.320496,347.247467 344.320496,366.131012 343.972290,385.610016 
	C343.393250,386.529968 343.162415,386.854492 342.931610,387.178986 
z"/>
<path fill="#F7BE18" opacity="1.000000" stroke="none" 
	d="
M5.946786,82.962990 
	C5.948407,77.821815 6.001983,73.173485 5.933491,68.526955 
	C5.887572,65.411766 7.229687,63.981407 10.411413,64.015549 
	C17.879845,64.095695 25.350323,64.094879 32.818752,64.013969 
	C35.972507,63.979816 37.397198,65.394669 37.388325,68.489799 
	C37.366444,76.124954 37.361065,83.760277 37.389442,91.395386 
	C37.400253,94.303520 35.898853,95.712723 33.122753,95.731392 
	C25.487940,95.782738 17.839861,95.981361 10.228319,95.558510 
	C8.732032,95.475388 6.625665,93.082893 6.134361,91.372398 
	C5.429477,88.918304 5.949636,86.112343 5.946786,82.962990 
z"/>
<path fill="#9CC243" opacity="1.000000" stroke="none" 
	d="
M241.074478,275.765778 
	C242.972336,280.436249 244.402725,284.931885 246.707520,288.922455 
	C248.922455,292.757446 252.042847,296.069489 255.267792,300.264893 
	C246.518051,300.264893 238.198898,300.381256 229.893188,300.100403 
	C228.975922,300.069397 227.420197,297.790771 227.377594,296.513977 
	C227.133423,289.197174 227.017487,281.853882 227.452011,274.554932 
	C227.542084,273.041931 229.919968,270.926270 231.633926,270.425873 
	C234.066223,269.715790 236.860519,270.245605 239.670334,270.245605 
	C240.171082,272.191071 240.580215,273.780579 241.074478,275.765778 
z"/>
<path fill="#99C03C" opacity="1.000000" stroke="none" 
	d="
M44.993328,5.752065 
	C56.249432,5.752918 56.249435,5.752918 56.249424,16.553211 
	C56.249409,29.333719 56.249405,29.333717 43.472012,29.333719 
	C32.695095,29.333721 32.695095,29.333723 32.695122,18.537409 
	C32.695122,18.204369 32.695122,17.871326 32.695122,17.538286 
	C32.695122,5.752501 32.695122,5.752501 44.993328,5.752065 
z"/>
<path fill="#F8C739" opacity="1.000000" stroke="none" 
	d="
M101.442139,238.276917 
	C102.060402,239.067307 102.880371,240.229004 102.886131,241.394745 
	C102.965569,257.477234 102.939056,273.560272 102.905457,289.643097 
	C102.904152,290.269989 102.572174,290.896118 102.066284,291.800781 
	C101.542809,288.651093 101.186623,285.223541 101.179832,281.795288 
	C101.151352,267.413666 101.227478,253.031860 101.442139,238.276917 
z"/>
<path fill="#37BDE7" opacity="1.000000" stroke="none" 
	d="
M18.296967,277.362793 
	C18.525324,276.781830 19.083635,276.167633 19.637814,276.171356 
	C31.243593,276.248993 42.848904,276.396576 54.748474,276.832794 
	C49.991364,277.374664 44.941563,277.768097 39.888454,277.816589 
	C32.801926,277.884644 25.712934,277.696106 18.296967,277.362793 
z"/>
<path fill="#F6B907" opacity="1.000000" stroke="none" 
	d="
M292.346588,118.980530 
	C292.263580,118.705925 292.527802,118.409531 293.071655,117.987885 
	C293.132141,118.228012 292.912964,118.593376 292.346588,118.980530 
z"/>
<path fill="#95BD36" opacity="1.000000" stroke="none" 
	d="
M333.857239,386.286041 
	C334.156616,386.170288 334.479492,386.402954 334.937561,386.907104 
	C334.675415,386.997192 334.278076,386.815826 333.857239,386.286041 
z"/>
<path fill="#95BD36" opacity="1.000000" stroke="none" 
	d="
M343.279846,387.152222 
	C343.162415,386.854492 343.393250,386.529968 343.894867,386.069519 
	C343.986481,386.330841 343.807281,386.728119 343.279846,387.152222 
z"/>
<path fill="#FCFCFC" opacity="1.000000" stroke="none" 
	d="
M357.942627,204.969513 
	C333.003967,204.969513 308.556335,204.969513 283.383881,204.969513 
	C283.383881,202.178970 283.383636,199.591217 283.383911,197.003464 
	C283.384705,188.518784 283.228210,180.030380 283.428253,171.550400 
	C283.654755,161.950607 287.800446,158.051453 297.313690,158.045441 
	C315.946716,158.033661 334.579773,158.021439 353.212738,158.052322 
	C361.183289,158.065536 365.629669,161.738434 365.887146,169.579529 
	C366.268066,181.181427 365.985626,192.805115 365.985626,204.969513 
	C363.307373,204.969513 360.870544,204.969513 357.942627,204.969513 
z"/>
<path fill="#FBFEFE" opacity="1.000000" stroke="none" 
	d="
M285.338684,329.157349 
	C286.511230,330.852020 287.809174,332.372345 287.898560,333.960724 
	C288.178162,338.927643 287.960968,343.920685 288.016144,348.902710 
	C288.051514,352.099274 286.718384,354.051178 283.391144,354.077301 
	C275.605804,354.138367 267.819641,354.096832 259.708221,354.096832 
	C259.708221,345.693329 259.708221,337.633331 259.708221,329.014160 
	C268.158722,329.014160 276.534943,329.014160 285.338684,329.157349 
z"/>
<path fill="#FEFCF5" opacity="1.000000" stroke="none" 
	d="
M219.059143,360.846130 
	C218.691544,362.074738 218.409012,363.367218 217.700378,363.673340 
	C216.718597,364.097504 215.416443,363.780121 214.251465,363.780121 
	C208.311752,363.780151 202.372025,363.780121 195.706299,363.780121 
	C199.724014,352.380707 203.506302,341.649292 207.288589,330.917877 
	C207.650604,330.861237 208.012604,330.804565 208.374619,330.747925 
	C211.901138,340.655304 215.427658,350.562714 219.059143,360.846130 
z"/>
</svg>